<svg width="40" height="40" viewBox="0 0 40 40" fill="none" xmlns="http://www.w3.org/2000/svg">
<g clip-path="url(#clip0_2829_2057)">
<path d="M39.7603 38.7403L26.5468 25.5169C31.97 19.5199 31.8502 10.2546 26.0674 4.46745C20.1348 -1.49957 10.427 -1.49957 4.46442 4.46745C1.58802 7.34601 0 11.1841 0 15.292C0 19.4 1.58802 23.2081 4.46442 26.1166C7.34082 28.9952 11.176 30.5844 15.2809 30.5844C19.1161 30.5844 22.6816 29.1451 25.4981 26.5964L38.7116 39.8198C38.7116 39.8198 39.0412 40.0297 39.2509 40.0297C39.4607 40.0297 39.6404 39.9697 39.7903 39.8198C40.0899 39.5199 40.0899 39.0402 39.7903 38.7703L39.7603 38.7403ZM5.54307 25.0372C2.93633 22.4285 1.49813 18.9802 1.49813 15.292C1.49813 11.6039 2.93633 8.15561 5.54307 5.54691C8.20974 2.84826 11.7453 1.49893 15.2809 1.49893C18.5768 1.49893 21.8127 2.72832 24.4195 5.03716L13.8427 15.6219C13.5431 15.9217 13.5431 16.4015 13.8427 16.6713C14.1423 16.9412 14.6217 16.9712 14.8914 16.6713L25.4682 6.08664C30.3221 11.4839 30.2322 19.8498 25.0187 25.0372C22.412 27.6459 18.9663 29.0851 15.2809 29.0851C11.5955 29.0851 8.14981 27.6459 5.54307 25.0372Z" fill="#EA971F"/>
<path d="M19.5956 4.52958C19.296 4.22972 18.8166 4.22972 18.5469 4.52958L10.6368 12.4456C10.3372 12.7455 10.3372 13.2252 10.6368 13.4951C10.9365 13.765 11.4159 13.7949 11.6855 13.4951L19.5956 5.57905C19.8953 5.2792 19.8953 4.79944 19.5956 4.52958Z" fill="#EA971F"/>
<path d="M25.8576 11.0335C25.558 10.7336 25.0786 10.7336 24.8089 11.0335L17.0187 18.8296C16.719 19.1294 16.719 19.6092 17.0187 19.8791C17.3183 20.1489 17.7977 20.1789 18.0674 19.8791L25.8576 12.083C26.1572 11.7831 26.1572 11.3033 25.8576 11.0335Z" fill="#EA971F"/>
</g>
<defs>
<clipPath id="clip0_2829_2057">
<rect width="40" height="40" fill="white"/>
</clipPath>
</defs>
</svg>
